<svg preserveAspectRatio="none" overflow="visible" style="display: block;" width="69.737" height="70.2387" viewBox="70 55 69.737 70.2387" fill="none" xmlns="http://www.w3.org/2000/svg">
<rect x="70" y="55" width="69.737" height="70.2387" rx="17.27" fill="#FDFDFD" shape-rendering="crispEdges"/>
<rect x="75.0015" y="60" width="60" height="60" rx="12" fill="#50AF95"/>
<path id="Vector" fill-rule="evenodd" clip-rule="evenodd" d="M108.458 91.2024V91.1988C108.265 91.2132 107.267 91.2744 105.04 91.2744C103.262 91.2744 102.011 91.2204 101.571 91.1988V91.2042C94.7272 90.8966 89.6191 89.6789 89.6191 88.222C89.6191 86.7669 94.7272 85.5492 101.571 85.2362V89.9919C102.018 90.0243 103.299 90.1016 105.07 90.1016C107.195 90.1016 108.26 90.0117 108.458 89.9937V85.2398C115.288 85.551 120.384 86.7687 120.384 88.222C120.384 89.6789 115.288 90.893 108.458 91.2024V91.2024ZM108.458 84.7452V80.4896H117.988V74H92.0411V80.4896H101.571V84.7434C93.826 85.1067 88.0015 86.6752 88.0015 88.553C88.0015 90.4308 93.826 91.9974 101.571 92.3625V106H108.458V92.3589C116.191 91.9956 122.001 90.429 122.001 88.553C122.001 86.677 116.191 85.1103 108.458 84.7452" fill="white"/>
</svg>
