<svg preserveAspectRatio="none" overflow="visible" style="display: block;" width="21.5002" height="21.5002" viewBox="0 0 21.5002 21.5002" fill="none" xmlns="http://www.w3.org/2000/svg">
<path id="Vector" d="M19.1506 8.48837C20.2169 9.5546 20.75 10.0877 20.75 10.7502C20.75 11.4126 20.2169 11.9458 19.1506 13.012C18.4338 13.7288 18.2137 14.1916 18.2137 15.1981C18.2137 15.9946 18.3682 17.1278 17.7405 17.7502C17.1178 18.3677 15.9893 18.2139 15.1979 18.2139C14.2265 18.2139 13.7587 18.4039 13.0654 19.0972C12.4751 19.6876 11.6837 20.7502 10.75 20.7502C9.8163 20.7502 9.0249 19.6876 8.43457 19.0972C7.74128 18.4039 7.27349 18.2139 6.30206 18.2139C5.51068 18.2139 4.38218 18.3677 3.75949 17.7502C3.13181 17.1278 3.28628 15.9946 3.28628 15.1981C3.28628 14.1916 3.06616 13.7288 2.34938 13.012C1.28314 11.9458 0.75002 11.4126 0.75 10.7502C0.75001 10.0877 1.28315 9.55457 2.34935 8.48837C2.9892 7.84852 3.28628 7.21448 3.28628 6.30226C3.28628 5.51085 3.13249 4.38234 3.75 3.75964C4.37243 3.13198 5.5056 3.28646 6.30208 3.28646C7.21427 3.28646 7.84842 2.9893 8.48825 2.34947C9.55443 1.28329 10.0875 0.750198 10.75 0.750198C11.4125 0.750198 11.9456 1.28332 13.0118 2.34957M17.7405 17.7502H17.75M6.75 9.0579C6.75 9.0579 9 8.7502 10.75 12.7502C10.75 12.7502 15.8088 2.7502 20.75 0.750198" stroke="#009162" stroke-width="1.5" stroke-linecap="round" stroke-linejoin="round"/>
</svg>
